<svg xmlns="http://www.w3.org/2000/svg" viewBox="0 0 113.45 159.87"><defs><style>.cls-1{fill:#231f20;}.cls-1,.cls-2{stroke:#fff;stroke-miterlimit:10;}.cls-2{fill:#cf0a2c;}</style></defs><title>Asset 2</title><g id="Layer_2" data-name="Layer 2"><g id="Layer_1-2" data-name="Layer 1"><path id="Left_Teardrop" data-name="Left Teardrop" class="cls-1" d="M56.4,150.36l-1,0A48.21,48.21,0,0,1,18.1,130.63a44,44,0,0,1-8.17-20.21c-.1-.75-.22-1.5-.34-2.25l-.1-.63v-6.36c.09-.57.18-1.13.27-1.7.23-1.49.45-2.85.74-4.17a65.67,65.67,0,0,1,6.17-16.17C21.55,69.68,27.78,60.71,33.8,52l2.08-3c6.47-9.35,13.8-20,20.37-30.6l.15-.24V1.58L53.17,6.16c-.18.25-.32.47-.46.69-7.41,12.72-16,25.09-24.24,37l-2.07,3C20.22,55.8,13.83,65,8.68,75a74.32,74.32,0,0,0-7,18.37C1.37,95,1.12,96.54.88,98.06c-.11.67-.21,1.33-.32,2l-.06.67,0,7.79.17,1.08c.11.67.22,1.34.31,2a52.88,52.88,0,0,0,9.81,24.31,57.16,57.16,0,0,0,44.55,23.41l1,0Z"/><path id="O" class="cls-1" d="M23,127.5a25.68,25.68,0,0,1-8.8-1.35A16,16,0,0,1,8,122.25a15.12,15.12,0,0,1-3.48-6,24.74,24.74,0,0,1-1-7.38V72.52a24.77,24.77,0,0,1,1-7.38,15.15,15.15,0,0,1,3.48-6,16,16,0,0,1,6.15-3.9A25.65,25.65,0,0,1,23,53.91H60.53a25.65,25.65,0,0,1,8.8,1.35,16,16,0,0,1,6.15,3.9,15.14,15.14,0,0,1,3.48,6,24.77,24.77,0,0,1,1,7.38v36.37a24.74,24.74,0,0,1-1,7.38,15.12,15.12,0,0,1-3.48,6,16,16,0,0,1-6.15,3.9,25.68,25.68,0,0,1-8.8,1.35Zm0-59.95c-3.85,0-5.49,1.46-5.49,4.87V109c0,3.41,1.64,4.87,5.49,4.87H60.53c3.85,0,5.49-1.46,5.49-4.87V72.42c0-3.41-1.64-4.87-5.49-4.87Z"/><path id="S" class="cls-2" d="M16.64,144.12V131.77H89.86a5.85,5.85,0,0,0,1-.07v-4.12a6,6,0,0,0-1-.07H68.57a22.09,22.09,0,0,1-6.24-.79,13.06,13.06,0,0,1-4.79-2.49,10.26,10.26,0,0,1-3-4.16,13.29,13.29,0,0,1-.85-4.81v-2.11a13.29,13.29,0,0,1,.85-4.81,10.27,10.27,0,0,1,3-4.16,13.11,13.11,0,0,1,4.79-2.49,22.11,22.11,0,0,1,6.24-.79h44.23v12.35H68.57a5.87,5.87,0,0,0-1,.07v1.75a5.89,5.89,0,0,0,1,.07H89.86a22.12,22.12,0,0,1,6.24.79,13.13,13.13,0,0,1,4.79,2.49,10.28,10.28,0,0,1,3,4.16,13.3,13.3,0,0,1,.85,4.81v4.48a13.28,13.28,0,0,1-.85,4.81,10.28,10.28,0,0,1-3,4.16,13.09,13.09,0,0,1-4.79,2.49,22.08,22.08,0,0,1-6.24.79Z"/><path id="Right_Teardrop" data-name="Right Teardrop" class="cls-2" d="M57,150.36l1,0a48.21,48.21,0,0,0,37.33-19.71,44,44,0,0,0,8.17-20.21c.1-.75.22-1.5.34-2.25l.1-.63v-6.36c-.09-.57-.18-1.13-.27-1.7-.23-1.49-.45-2.85-.74-4.17a65.67,65.67,0,0,0-6.17-16.17C91.9,69.68,85.67,60.71,79.65,52l-2.08-3c-6.47-9.35-13.8-20-20.37-30.6L57,18.18V1.58l3.23,4.58c.18.25.32.47.46.69,7.17,12.31,15.63,24.6,24.24,37l2.07,3C93.22,55.8,99.62,65,104.77,75a74.32,74.32,0,0,1,7,18.37c.35,1.59.59,3.16.83,4.67.11.67.21,1.33.32,2l.06.67,0,7.79-.17,1.08c-.11.67-.22,1.34-.31,2a52.88,52.88,0,0,1-9.81,24.31,57.16,57.16,0,0,1-44.55,23.41l-1,0Z"/></g></g></svg>