<svg xmlns="http://www.w3.org/2000/svg" viewBox="0 0 255.84 195.08"><defs><style>.cls-1,.cls-3{fill:#231f20;}.cls-2,.cls-4{fill:#cf0a2c;}.cls-3,.cls-4{stroke:#fff;stroke-miterlimit:10;}</style></defs><title>Asset 1</title><g id="Layer_2" data-name="Layer 2"><g id="Layer_1-2" data-name="Layer 1"><path class="cls-1" d="M26.45,195.08a7.39,7.39,0,0,1-2.09-.26,3.81,3.81,0,0,1-1.41-.72,2.71,2.71,0,0,1-.79-1.1,3.9,3.9,0,0,1-.25-1.42v-7.47a3.89,3.89,0,0,1,.25-1.42,2.71,2.71,0,0,1,.79-1.1,3.84,3.84,0,0,1,1.41-.72,7.42,7.42,0,0,1,2.09-.26H38.09v2.13H26.45q-1.81,0-1.81,1.33v7.52q0,1.33,1.81,1.33H38.09v2.14Z"/><path class="cls-1" d="M130.76,195.08v-2.14h12.57q1.81,0,1.81-1.33v-1.83q0-1.34-1.81-1.33h-8.5a7.4,7.4,0,0,1-2.1-.26,3.81,3.81,0,0,1-1.41-.72,2.7,2.7,0,0,1-.79-1.1,3.9,3.9,0,0,1-.25-1.42v-.84a3.89,3.89,0,0,1,.25-1.42,2.7,2.7,0,0,1,.79-1.1,3.84,3.84,0,0,1,1.41-.72,7.44,7.44,0,0,1,2.1-.26h12.24v2.13H134.83q-1.81,0-1.81,1.33V185q0,1.34,1.81,1.33h8.5a7.35,7.35,0,0,1,2.09.26,3.83,3.83,0,0,1,1.41.72,2.71,2.71,0,0,1,.79,1.1,3.9,3.9,0,0,1,.25,1.42v1.79a3.9,3.9,0,0,1-.25,1.42,2.71,2.71,0,0,1-.79,1.1,3.83,3.83,0,0,1-1.41.72,7.39,7.39,0,0,1-2.09.26Z"/><path class="cls-1" d="M155.36,195.08a7.43,7.43,0,0,1-2.09-.26,3.83,3.83,0,0,1-1.41-.72,2.7,2.7,0,0,1-.79-1.1,3.9,3.9,0,0,1-.25-1.42v-7.47a3.89,3.89,0,0,1,.25-1.42,2.7,2.7,0,0,1,.79-1.1,3.85,3.85,0,0,1,1.41-.72,7.43,7.43,0,0,1,2.09-.26h9.55a7.42,7.42,0,0,1,2.09.26,3.84,3.84,0,0,1,1.41.72,2.7,2.7,0,0,1,.79,1.1,3.89,3.89,0,0,1,.25,1.42v7.47a3.9,3.9,0,0,1-.25,1.42,2.69,2.69,0,0,1-.79,1.1,3.83,3.83,0,0,1-1.41.72,7.42,7.42,0,0,1-2.09.26Zm11.35-11q0-1.33-1.81-1.33h-9.55q-1.81,0-1.81,1.33v7.52q0,1.33,1.81,1.33h9.55q1.81,0,1.81-1.33Z"/><path class="cls-1" d="M177.27,195.08a7.38,7.38,0,0,1-2.09-.26,3.82,3.82,0,0,1-1.41-.72A2.7,2.7,0,0,1,173,193a3.91,3.91,0,0,1-.25-1.42v-7.47a3.9,3.9,0,0,1,.25-1.42,2.7,2.7,0,0,1,.79-1.1,3.85,3.85,0,0,1,1.41-.72,7.42,7.42,0,0,1,2.09-.26h11.64v2.13H177.27q-1.81,0-1.81,1.33v7.52q0,1.33,1.81,1.33h11.64v2.14Z"/><rect class="cls-1" x="192.14" y="180.62" width="2.73" height="14.45"/><polygon class="cls-1" points="72.25 192.94 75.29 192.94 67.15 180.62 65.16 180.62 55.55 195.08 58.59 195.08 66.16 183.44 72.25 192.94"/><path class="cls-1" d="M104.21,192.94h12.14v2.14H101.48v-2.14Zm-2.73-10.19v-2.14h14.87v2.14H101.48Zm0,5.75v-2.14h14.25v2.14H101.48Z"/><path class="cls-1" d="M201.2,192.94h12.14v2.14H198.47v-2.14Zm-2.73-10.19v-2.14h14.87v2.14H198.47Zm0,5.75v-2.14h14.25v2.14H198.47Z"/><rect class="cls-1" x="223.19" y="184.89" width="2.73" height="10.18"/><polygon class="cls-1" points="215.61 180.62 215.61 182.76 223.19 182.76 225.92 182.76 233.29 182.76 233.29 180.62 215.61 180.62"/><rect class="cls-1" x="47.93" y="184.89" width="2.73" height="10.18"/><polygon class="cls-1" points="40.35 180.62 40.35 182.76 47.93 182.76 50.66 182.76 58.03 182.76 58.03 180.62 40.35 180.62"/><polygon class="cls-1" points="78.85 184.69 78.85 195.08 81.23 195.08 81.23 186.45 78.85 184.69"/><polygon class="cls-1" points="95.61 180.62 95.61 191.36 81.21 180.62 78.85 180.62 78.85 182.04 86.27 187.5 96.66 195.08 97.99 195.08 97.99 180.62 95.61 180.62"/><polygon class="cls-1" points="243.85 185.95 242.54 184.73 238.1 180.62 234.61 180.62 243.89 189.21 243.89 195.08 246.62 195.08 246.62 188.55 246.63 188.55 243.85 185.95"/><polygon class="cls-1" points="248.54 187.41 255.84 180.62 252.39 180.62 246.81 185.79 248.54 187.41"/><path class="cls-1" d="M4.54,195.08a7.43,7.43,0,0,1-2.09-.26A3.84,3.84,0,0,1,1,194.1,2.7,2.7,0,0,1,.25,193,3.88,3.88,0,0,1,0,191.59v-7.47a3.87,3.87,0,0,1,.25-1.42A2.7,2.7,0,0,1,1,181.6a3.86,3.86,0,0,1,1.41-.72,7.43,7.43,0,0,1,2.09-.26h9.55a7.42,7.42,0,0,1,2.09.26,3.86,3.86,0,0,1,1.41.72,2.71,2.71,0,0,1,.79,1.1,3.89,3.89,0,0,1,.25,1.42v7.47a3.9,3.9,0,0,1-.25,1.42,2.7,2.7,0,0,1-.79,1.1,3.84,3.84,0,0,1-1.41.72,7.42,7.42,0,0,1-2.09.26Zm11.36-11q0-1.33-1.81-1.33H4.54q-1.81,0-1.81,1.33v7.52q0,1.33,1.81,1.33h9.55q1.81,0,1.81-1.33Z"/><polygon class="cls-2" points="76.7 195.08 61.64 195.08 62.99 192.94 75.29 192.94 76.7 195.08"/><path id="Left_Teardrop" data-name="Left Teardrop" class="cls-3" d="M126.94,150.36l-1,0a48.21,48.21,0,0,1-37.33-19.71,44,44,0,0,1-8.17-20.21c-.1-.75-.22-1.5-.34-2.25l-.1-.63v-6.36c.09-.57.18-1.13.27-1.7.23-1.49.45-2.85.74-4.17a65.67,65.67,0,0,1,6.17-16.17C92.09,69.68,98.32,60.71,104.34,52l2.08-3c6.47-9.35,13.8-20,20.37-30.6l.15-.24V1.58l-3.23,4.58c-.18.25-.32.47-.46.69-7.41,12.72-16,25.09-24.24,37l-2.07,3C90.76,55.8,84.37,65,79.22,75a74.32,74.32,0,0,0-7,18.37c-.35,1.59-.59,3.16-.83,4.67-.11.67-.21,1.33-.32,2l-.06.67,0,7.79.17,1.08c.11.67.22,1.34.31,2a52.88,52.88,0,0,0,9.81,24.31,57.16,57.16,0,0,0,44.55,23.41l1,0Z"/><path id="O" class="cls-3" d="M93.5,127.5a25.68,25.68,0,0,1-8.8-1.35,16,16,0,0,1-6.15-3.9,15.12,15.12,0,0,1-3.48-6,24.74,24.74,0,0,1-1-7.38V72.52a24.77,24.77,0,0,1,1-7.38,15.15,15.15,0,0,1,3.48-6,16,16,0,0,1,6.15-3.9,25.65,25.65,0,0,1,8.8-1.35h37.57a25.65,25.65,0,0,1,8.8,1.35,16,16,0,0,1,6.15,3.9,15.14,15.14,0,0,1,3.48,6,24.77,24.77,0,0,1,1,7.38v36.37a24.74,24.74,0,0,1-1,7.38,15.12,15.12,0,0,1-3.48,6,16,16,0,0,1-6.15,3.9,25.68,25.68,0,0,1-8.8,1.35Zm0-59.95C89.66,67.55,88,69,88,72.42V109c0,3.41,1.64,4.87,5.49,4.87h37.57c3.85,0,5.49-1.46,5.49-4.87V72.42c0-3.41-1.64-4.87-5.49-4.87Z"/><path id="S" class="cls-4" d="M87.18,144.12V131.77H160.4a5.85,5.85,0,0,0,1-.07v-4.12a6,6,0,0,0-1-.07H139.11a22.09,22.09,0,0,1-6.24-.79,13.06,13.06,0,0,1-4.79-2.49,10.26,10.26,0,0,1-3-4.16,13.29,13.29,0,0,1-.85-4.81v-2.11a13.29,13.29,0,0,1,.85-4.81,10.27,10.27,0,0,1,3-4.16,13.11,13.11,0,0,1,4.79-2.49,22.11,22.11,0,0,1,6.24-.79h44.23v12.35H139.11a5.87,5.87,0,0,0-1,.07v1.75a5.89,5.89,0,0,0,1,.07H160.4a22.12,22.12,0,0,1,6.24.79,13.13,13.13,0,0,1,4.79,2.49,10.28,10.28,0,0,1,3,4.16,13.3,13.3,0,0,1,.85,4.81v4.48a13.28,13.28,0,0,1-.85,4.81,10.28,10.28,0,0,1-3,4.16,13.09,13.09,0,0,1-4.79,2.49,22.08,22.08,0,0,1-6.24.79Z"/><path id="Right_Teardrop" data-name="Right Teardrop" class="cls-4" d="M127.59,150.36l1,0a48.21,48.21,0,0,0,37.33-19.71,44,44,0,0,0,8.17-20.21c.1-.75.22-1.5.34-2.25l.1-.63v-6.36c-.09-.57-.18-1.13-.27-1.7-.23-1.49-.45-2.85-.74-4.17a65.67,65.67,0,0,0-6.17-16.17c-4.87-9.45-11.09-18.43-17.12-27.11l-2.08-3c-6.47-9.35-13.8-20-20.37-30.6l-.15-.24V1.58l3.23,4.58c.18.25.32.47.46.69,7.17,12.31,15.63,24.6,24.24,37l2.07,3C163.76,55.8,170.16,65,175.31,75a74.32,74.32,0,0,1,7,18.37c.35,1.59.59,3.16.83,4.67.11.67.21,1.33.32,2l.06.67,0,7.79-.17,1.08c-.11.67-.22,1.34-.31,2a52.88,52.88,0,0,1-9.81,24.31,57.16,57.16,0,0,1-44.55,23.41l-1,0Z"/></g></g></svg>